<?xml version="1.0" encoding="UTF-8" standalone="no"?>
<!DOCTYPE svg PUBLIC "-//W3C//DTD SVG 1.1//EN" "http://www.w3.org/Graphics/SVG/1.1/DTD/svg11.dtd">
<svg version="1.1" xmlns="http://www.w3.org/2000/svg" xmlns:xlink="http://www.w3.org/1999/xlink" preserveAspectRatio="xMidYMid meet" viewBox="0 0 640 640" width="640" height="640"><defs><path d="M0 0L640 0L640 220C639.17 221.17 638.65 221.9 638.44 222.19C605.95 267.71 547.32 286.33 494.52 267.91C464.61 257.47 437.56 248.03 401.04 235.28C364.38 222.49 324.89 220.15 286.98 228.52C252.01 236.25 210.85 245.34 177.33 252.74C135.58 261.96 91.89 254.25 55.83 231.3C48.38 226.56 29.77 214.72 0 195.77L0 0Z" id="b5xvb08tQt"></path><path d="M0 30.61L640 30.61L633.94 197.58C624.84 214.17 619.15 224.54 616.88 228.68C590.97 275.92 533.89 296.39 483.87 276.39C455.18 264.93 430.75 255.16 395.57 241.09C360 226.87 320.5 225.92 284.28 238.4C249.85 250.27 208.29 264.6 175.25 275.99C136.23 289.44 92.99 280.94 61.97 253.71C52.3 245.22 28.1 223.99 -10.61 190.01L0 30.61Z" id="bMz6gF6XX"></path><path d="M0 0L640 0L640 220C639.17 221.17 638.65 221.9 638.44 222.19C605.95 267.71 547.32 286.33 494.52 267.91C464.61 257.47 437.56 248.03 401.04 235.28C364.38 222.49 324.89 220.15 286.98 228.52C252.01 236.25 210.85 245.34 177.33 252.74C135.58 261.96 91.89 254.25 55.83 231.3C48.38 226.56 29.77 214.72 0 195.77L0 0Z" id="aaMaUBKtx"></path></defs><g><g><g><use xlink:href="#b5xvb08tQt" opacity="1" fill="#3f3f3f" fill-opacity="1"></use></g><g><use xlink:href="#bMz6gF6XX" opacity="1" fill="#e0e0e0" fill-opacity="1"></use><g><use xlink:href="#bMz6gF6XX" opacity="1" fill-opacity="0" stroke="#dbd8da" stroke-width="1" stroke-opacity="1"></use></g></g><g><use xlink:href="#aaMaUBKtx" opacity="1" fill="#3f3f3f" fill-opacity="1"></use></g></g></g></svg>