<?xml version="1.0" encoding="UTF-8" standalone="no"?>
<!DOCTYPE svg PUBLIC "-//W3C//DTD SVG 1.1//EN" "http://www.w3.org/Graphics/SVG/1.1/DTD/svg11.dtd">
<svg version="1.1" xmlns="http://www.w3.org/2000/svg" xmlns:xlink="http://www.w3.org/1999/xlink" preserveAspectRatio="xMidYMid meet" viewBox="0 0 800 300" width="800" height="300"><defs><path d="M0 0L800 0L800 302.36L0 302.36L0 0Z" id="b2eg1rUWry"></path><path d="M0 0L373.71 0C371.16 7.24 375.84 22.14 387.77 44.71C405.66 78.56 436.1 107 433.51 145.98C432.14 166.55 415.72 199.8 384.26 245.73C373.34 261.67 365.83 279.68 362.2 298.65C362.11 299.15 361.87 300.38 361.49 302.36L0 302.36L0 0Z" id="b2tI5ODTO"></path><path d="M472.64 151.18C472.64 172.04 455.17 188.98 433.66 188.98C412.15 188.98 394.69 172.04 394.69 151.18C394.69 130.32 412.15 113.39 433.66 113.39C455.17 113.39 472.64 130.32 472.64 151.18Z" id="d2jveB3SdN"></path><path d="M437.15 158.18L425.87 165.94L425.38 151.18L424.9 136.43L436.66 143.42L448.42 150.42L437.15 158.18Z" id="a1CdqcwiBJ"></path></defs><g><g><g><use xlink:href="#b2eg1rUWry" opacity="1" fill="#741663" fill-opacity="1"></use></g><g><use xlink:href="#b2tI5ODTO" opacity="1" fill="#ffffff" fill-opacity="1"></use></g><g><use xlink:href="#d2jveB3SdN" opacity="1" fill="#fc3d3d" fill-opacity="1"></use></g><g><use xlink:href="#a1CdqcwiBJ" opacity="1" fill="#ffffff" fill-opacity="1"></use></g></g></g></svg>